<svg xmlns="http://www.w3.org/2000/svg" viewBox="0 0 189.23 49.29"><defs><style>.cls-1{opacity:0.81;}.cls-2{fill:#ffad41;}.cls-13,.cls-3{fill:#ff9811;}.cls-4{fill:#804c09;}.cls-5{fill:#bd720d;}.cls-6{fill:#ffe98f;}.cls-7{fill:#ffda44;}.cls-8{fill:#ff5023;}.cls-9{fill:#bd3c1a;}.cls-10{fill:#91dc5a;}.cls-11{fill:#64c37d;}.cls-12,.cls-13,.cls-14{isolation:isolate;}.cls-13,.cls-14{font-size:42.67px;font-family:MVBoli, MV Boli;}.cls-14{fill:#dc4c28;}.cls-15{fill:#fff;}</style></defs><g id="Layer_1" data-name="Layer 1"><g class="cls-1"><path class="cls-2" d="M64.74,51V48.66A11.61,11.61,0,0,0,53.13,37H43.62A11.62,11.62,0,0,0,32,48.66V51Z" transform="translate(-26.35 -33.35)"/><path class="cls-3" d="M48.37,37H43.62A11.62,11.62,0,0,0,32,48.66V51H48.37Z" transform="translate(-26.35 -33.35)"/><circle class="cls-4" cx="11.5" cy="11.87" r="1.17"/><circle class="cls-4" cx="17.34" cy="8.36" r="1.17"/><circle class="cls-5" cx="32.55" cy="11.87" r="1.17"/><circle class="cls-5" cx="26.7" cy="8.36" r="1.17"/><circle class="cls-5" cx="22.02" cy="11.87" r="1.17"/><path class="cls-4" d="M48.37,44.05a1.17,1.17,0,1,0,0,2.34" transform="translate(-26.35 -33.35)"/><path class="cls-5" d="M61.24,60.35H35.51a3.51,3.51,0,1,0,0,7H61.24a3.51,3.51,0,0,0,0-7Z" transform="translate(-26.35 -33.35)"/><path class="cls-4" d="M48.37,60.35H35.51a3.51,3.51,0,1,0,0,7H48.37Z" transform="translate(-26.35 -33.35)"/><path class="cls-2" d="M67.08,69.71a3.5,3.5,0,0,1-3.5,3.5H33.17a3.51,3.51,0,0,1-3.51-3.5h0a3.51,3.51,0,0,1,3.51-3.51H63.58A3.51,3.51,0,0,1,67.08,69.71Z" transform="translate(-26.35 -33.35)"/><path class="cls-3" d="M48.37,66.2H33.17a3.51,3.51,0,1,0,0,7h15.2Z" transform="translate(-26.35 -33.35)"/><polygon class="cls-6" points="22.02 27 33.72 28.16 22.02 34.01 10.33 28.16 22.02 27"/><polygon class="cls-7" points="10.33 28.16 22.02 27 22.02 34.01 10.33 28.16"/><path class="cls-5" d="M61.24,52.16H35.51a3.51,3.51,0,0,0,0,7H61.24a3.51,3.51,0,0,0,0-7Z" transform="translate(-26.35 -33.35)"/><path class="cls-4" d="M48.37,52.16H35.51a3.51,3.51,0,0,0,0,7H48.37Z" transform="translate(-26.35 -33.35)"/><path class="cls-8" d="M67.08,59.77a1.75,1.75,0,0,1-1.75,1.75H31.42a1.76,1.76,0,0,1-1.76-1.75h0A1.76,1.76,0,0,1,31.42,58H65.33A1.75,1.75,0,0,1,67.08,59.77Z" transform="translate(-26.35 -33.35)"/><path class="cls-9" d="M48.37,58H31.42a1.76,1.76,0,1,0,0,3.51H48.37Z" transform="translate(-26.35 -33.35)"/><polygon class="cls-6" points="22.02 18.81 33.72 19.98 22.02 25.83 10.33 19.98 22.02 18.81"/><polygon class="cls-7" points="10.33 19.98 22.02 18.81 22.02 25.83 10.33 19.98"/><path class="cls-10" d="M67.08,51.58a1.75,1.75,0,0,1-1.75,1.75H31.42a1.75,1.75,0,0,1-1.76-1.75h0a1.75,1.75,0,0,1,1.76-1.75H65.33A1.75,1.75,0,0,1,67.08,51.58Z" transform="translate(-26.35 -33.35)"/><path class="cls-11" d="M48.37,49.83H31.42a1.75,1.75,0,1,0,0,3.5H48.37Z" transform="translate(-26.35 -33.35)"/></g><g id="text138" class="cls-12"><text class="cls-13" transform="translate(46.21 36.58)">f</text><text class="cls-13" transform="translate(60.54 36.58)">o</text><text class="cls-13" transform="translate(78.21 36.58)">o</text><text class="cls-13" transform="translate(95.87 36.58)">d</text><text class="cls-14" transform="translate(116.04 36.58)">b</text><text class="cls-14" transform="translate(134.56 36.58)">ite</text></g></g><g id="bite"><path class="cls-15" d="M26.89,47.22s4.81,2.5,6.86-1.4c0,0,4.13.79,4.91-3,0,0,3.55,2,4.55-1.16,0,0,4.2,2.19,4.76-1.48,0,0,4.7,1.22,4.1-4.56l-12.58,0L26.35,44Z" transform="translate(-26.35 -33.35)"/></g></svg>